<svg width="24" height="24" viewBox="0 0 24 24" fill="none" xmlns="http://www.w3.org/2000/svg"><path fill-rule="evenodd" clip-rule="evenodd" d="M16.5 16.5V10c0-2.4853-2.0147-4.5-4.5-4.5S7.5 7.5147 7.5 10v6.5h9ZM6 10v6.5H4.75a.75.75 0 0 0 0 1.5h14.5a.75.75 0 0 0 0-1.5H18V10c0-3.3137-2.6863-6-6-6s-6 2.6863-6 6Zm4.75 9a.75.75 0 0 0 0 1.5h2.5a.75.75 0 0 0 0-1.5h-2.5Z" fill="currentColor"/><path d="M12 3v1" stroke="currentColor" stroke-width="1.5" stroke-linecap="round" stroke-linejoin="round"/></svg>
