<svg width="251" height="354" viewBox="0 0 252 352" fill="none" xmlns="http://www.w3.org/2000/svg"><path d="M37.277 301.981a127.014 127.014 0 0 0 126.135-9.618" stroke="#6553D5" stroke-width="4.624" stroke-linecap="round" stroke-linejoin="round"/><path d="M129.048 173.904a271.205 271.205 0 0 1 22.981 6.604 259.627 259.627 0 0 0 15.355 109.207c-9.84 7.091-36.991 24.633-75.243 24.658a127.888 127.888 0 0 1-56.865-13.451 40.593 40.593 0 0 1-7.587-22.031c-3.2-63.738-4.788-95.618 10.252-107.808 18.172-14.712 50.409-6.969 91.107 2.821Z" stroke="#6553D5" stroke-width="1.261" stroke-linecap="round" stroke-linejoin="round"/><path d="M146.354 179.209c19.336 12.383 43.935 8.218 56.243-7.533 9.693-12.405 10.635-30.568 2.253-45.642a18.134 18.134 0 0 0 7.987-8.377 17.764 17.764 0 0 0 1.555-8.277c19.664 15.284 29.353 39.74 24.633 62.813-5.969 29.172-32.368 44.137-45.108 47.676a173.54 173.54 0 0 1-20.274 4.074 172.428 172.428 0 0 1-24.965 1.639"/><path d="M146.354 179.209c19.336 12.383 43.935 8.218 56.243-7.533 9.693-12.405 10.635-30.568 2.253-45.642a18.134 18.134 0 0 0 7.987-8.377 17.764 17.764 0 0 0 1.555-8.277c19.664 15.284 29.353 39.74 24.633 62.813-5.969 29.172-32.368 44.137-45.108 47.676a173.54 173.54 0 0 1-20.274 4.074 172.428 172.428 0 0 1-24.965 1.639" stroke="#6553D5" stroke-width="1.261" stroke-linecap="round" stroke-linejoin="round"/><path d="M204.85 126.034a1.603 1.603 0 0 1-.656.072c-1.068-.114-1.984-1.388-2.379-3.153a15.678 15.678 0 0 0 6.536-4.885c3.838-4.939 3.296-10.567 3.14-11.828.421-.03 1.741-.055 2.523.815.685.753.58 1.795.588 2.522a18.402 18.402 0 0 1-9.761 16.474l.009-.017Z" stroke="#6553D5" stroke-width="1.261" stroke-linecap="round" stroke-linejoin="round"/><path d="M204.69 121.032a17.946 17.946 0 0 0-6.372-6.453 11.84 11.84 0 0 0 .765-4.026 12.703 12.703 0 0 0-2.854-7.962 33.877 33.877 0 0 1 15.132 7.444 14.763 14.763 0 0 1-2.581 7.092 14.615 14.615 0 0 1-4.09 3.905ZM183.353 214.051l34.583-13.358-59.674 88.845-48.622 19.45 20.963-90.17 52.75-4.767ZM143.475 295.457l39.878-81.401" stroke="#6553D5" stroke-width="1.261" stroke-linecap="round" stroke-linejoin="round"/><path d="m119.338 267.272 40.635-5.502 25.852-13.271" stroke="#6553D5" stroke-width="1.261" stroke-linecap="round" stroke-linejoin="round"/><path d="M130.456 286.995a62.144 62.144 0 0 0 4.624-3.11 58.858 58.858 0 0 0 7.343-6.507 37.692 37.692 0 0 0 7.146-1.005 35.774 35.774 0 0 0 8.597-3.237 34.52 34.52 0 0 0 5.25-3.573 47.194 47.194 0 0 0 7.848-7.957c1.336-1.597 1.589-3.169 1.017-3.72-.446-.421-1.349-.202-1.736-.084l-6.062 6.061a87.372 87.372 0 0 0 11.199-15.721c.038-.992-.185-1.934-.719-2.156-.681-.286-1.993.555-2.821 2.391a38.655 38.655 0 0 1-9.008 10.98 30.94 30.94 0 0 0 4.448-4.393c1.214-1.471.886-1.349 4.081-6.28 1.896-2.921 2.875-4.296 3.186-6.591.089-.66.324-2.467-.42-2.875-.744-.408-2.257.172-2.98 1.85a50.883 50.883 0 0 1-11.198 14.447 28.3 28.3 0 0 0 10.172-16.394c0-.075-.034-1.034-.719-1.441-.685-.408-1.874-.11-2.484.924a34.428 34.428 0 0 1-12.724 13.153l-16.852 7.81a17.773 17.773 0 0 1 0-10.685c0-.143.181-1.53-.42-1.85-.601-.319-1.728.345-2.674 1.85a27.809 27.809 0 0 0-3.964 17.655 11.767 11.767 0 0 1-7.873 5.885 22.512 22.512 0 0 1 7.726 14.582l.017-.009Z" stroke="#6553D5" stroke-width="1.261" stroke-linecap="round" stroke-linejoin="round"/><path d="m115.954 273.578-4.241.84a6.934 6.934 0 0 1 3.161-3.997 6.755 6.755 0 0 1 3.783-.841 22.703 22.703 0 0 1 11.4 24.952 6.755 6.755 0 0 1-5.915 3.72"/><path d="m115.954 273.578-4.241.84a6.934 6.934 0 0 1 3.161-3.997 6.755 6.755 0 0 1 3.783-.841 22.703 22.703 0 0 1 11.4 24.952 6.755 6.755 0 0 1-5.915 3.72" stroke="#6553D5" stroke-width="1.261" stroke-linecap="round" stroke-linejoin="round"/><path d="M68.097 190.945c.28.496.537 1.013.77 1.551 2.862 6.398 2.1 12.993.92 17.68a42.19 42.19 0 0 0 46.167 63.402 21.362 21.362 0 0 1 8.89 24.338c-36.33 19.277-81.422 7.192-102.666-26.423C2.06 239.664 8.407 196.544 37.78 171.083"/><path d="M68.097 190.945c.28.496.537 1.013.77 1.551 2.862 6.398 2.1 12.993.92 17.68a42.19 42.19 0 0 0 46.167 63.402 21.362 21.362 0 0 1 8.89 24.338c-36.33 19.277-81.422 7.192-102.666-26.423C2.06 239.664 8.407 196.544 37.78 171.083" stroke="#6553D5" stroke-width="1.261" stroke-linecap="round" stroke-linejoin="round"/><path d="M189.053 95.592c14.137 9.693 10.706 22.422 4.645 39.589-6.062 17.167-25.641 15.973-19.988 30.295 5.654 14.321 0 20.42 0 20.42a40.431 40.431 0 0 1-10.609-.126 26.115 26.115 0 0 1-3.884-.84c-2.363-.728-2.203-1.072-5.091-2.056a35.941 35.941 0 0 1-4.393-1.681c-.685-.362-1.378-.757-1.378-.757a67.82 67.82 0 0 1-.917-.538 28.634 28.634 0 0 0-4.077-1.858c-2.384-.862-3.035-.841-8.252-2.329-4.901-1.4-5.611-1.627-6.246-1.795-5.082-1.357-13.485-1.349-27.853 5.326a9.022 9.022 0 0 1-3.964 3.485c-2.206.937-5.41 1.156-9.798-1.08-9.895-5.045-7.474-4.444-15.755-3.838-8.28.605-35.763 1.601-44.44-19.807-8.675-21.409 23.44-39.992 23.44-39.992s7.07-4.645 20.176-7.071c13.107-2.425 14.137-9.29 19.593-22.014 5.456-12.724 22.825-19.592 37.567-21.206 14.742-1.614 22.392-2.628 39.37 4.645 16.978 7.272 24.048 18.583 21.829 23.228a14.309 14.309 0 0 1-1.139 2.148c-2.396 3.565-6.074 4.977-7.953 5.528"/><path d="M189.053 95.592c14.137 9.693 10.706 22.422 4.645 39.589-6.062 17.167-25.641 15.973-19.988 30.295 5.654 14.321 0 20.42 0 20.42a40.431 40.431 0 0 1-10.609-.126 26.115 26.115 0 0 1-3.884-.84c-2.363-.728-2.203-1.072-5.091-2.056a35.941 35.941 0 0 1-4.393-1.681c-.685-.362-1.378-.757-1.378-.757a67.82 67.82 0 0 1-.917-.538 28.634 28.634 0 0 0-4.077-1.858c-2.384-.862-3.035-.841-8.252-2.329-4.901-1.4-5.611-1.627-6.246-1.795-5.082-1.357-13.485-1.349-27.853 5.326a9.022 9.022 0 0 1-3.964 3.485c-2.206.937-5.41 1.156-9.798-1.08-9.895-5.045-7.474-4.444-15.755-3.838-8.28.605-35.763 1.601-44.44-19.807-8.675-21.409 23.44-39.992 23.44-39.992s7.07-4.645 20.176-7.071c13.107-2.425 14.137-9.29 19.593-22.014 5.456-12.724 22.825-19.592 37.567-21.206 14.742-1.614 22.392-2.628 39.37 4.645 16.978 7.272 24.048 18.583 21.829 23.228a14.309 14.309 0 0 1-1.139 2.148c-2.396 3.565-6.074 4.977-7.953 5.528" stroke="#6553D5" stroke-width="1.261" stroke-linecap="round" stroke-linejoin="round"/><path d="M120.607 146.783a38.796 38.796 0 0 0 13.25 18.861l4.977 4.279a32.108 32.108 0 0 0 6.091-.42c21.463-3.586 32.9-28.32 35.687-34.801 1.594-6.949-.445-12.956-4.325-14.763-.786-.366-2.325-.874-4.687-.391a5.743 5.743 0 0 1-4.606.06 5.744 5.744 0 0 1-3.175-3.339 15.233 15.233 0 0 0-7.066-7.066c-6.242-2.942-12.161-.294-13.005.101l-13.103 12.699c.101-3.455-1.9-6.474-4.813-7.474-2.783-.958-5.885.109-7.373 1.946-2.459 3.044-1.45 9.387 3.993 14.132a91.926 91.926 0 0 0-19.659 24.578 16.043 16.043 0 0 1 2.459 7.68 15.775 15.775 0 0 1-.614 5.221l-3.481 11.265c.766.656 6.726 5.608 15.053 4.095 8.508-1.551 12.35-8.58 12.796-9.42.16-1.261.391-2.577.719-3.994a40.722 40.722 0 0 1 1.946-6.145"/><path d="M120.607 146.783a38.796 38.796 0 0 0 13.25 18.861l4.977 4.279a32.108 32.108 0 0 0 6.091-.42c21.463-3.586 32.9-28.32 35.687-34.801 1.594-6.949-.445-12.956-4.325-14.763-.786-.366-2.325-.874-4.687-.391a5.743 5.743 0 0 1-4.606.06 5.744 5.744 0 0 1-3.175-3.339 15.233 15.233 0 0 0-7.066-7.066c-6.242-2.942-12.161-.294-13.005.101l-13.103 12.699c.101-3.455-1.9-6.474-4.813-7.474-2.783-.958-5.885.109-7.373 1.946-2.459 3.044-1.45 9.387 3.993 14.132a91.926 91.926 0 0 0-19.659 24.578 16.043 16.043 0 0 1 2.459 7.68 15.775 15.775 0 0 1-.614 5.221l-3.481 11.265c.766.656 6.726 5.608 15.053 4.095 8.508-1.551 12.35-8.58 12.796-9.42.16-1.261.391-2.577.719-3.994a40.722 40.722 0 0 1 1.946-6.145" stroke="#6553D5" stroke-width="1.261" stroke-linecap="round" stroke-linejoin="round"/><path d="M124.063 117.06c2.143 2.82-1.304 6.305-1.304 6.305s3.04-3.149-.42-3.909M149.696 157.569a8.17 8.17 0 0 0 4.451.652 8.058 8.058 0 0 0 3.048-1.085 25.463 25.463 0 0 1 7.053-16.616" stroke="#6553D5" stroke-width="1.261" stroke-linecap="round" stroke-linejoin="round"/><path d="M153.517 143.828c3.089-.778 5.885-.114 7.028 1.656.327.527.515 1.129.546 1.748M138.909 135.959a37.536 37.536 0 0 1-7.957-14.502" stroke="#6553D5" stroke-width="1.261" stroke-linecap="round" stroke-linejoin="round"/><path d="m152.362 137.572-6.691-3.863a4.307 4.307 0 0 0-5.885 1.577l-1.991 3.447a4.31 4.31 0 0 0 1.577 5.886l6.691 3.863a4.309 4.309 0 0 0 5.886-1.577l1.99-3.447a4.309 4.309 0 0 0-1.577-5.886ZM170.901 145.281l-5.004-1.941a3.156 3.156 0 0 0-4.085 1.801l-1.055 2.72a3.156 3.156 0 0 0 1.801 4.085l5.005 1.941a3.157 3.157 0 0 0 4.085-1.801l1.055-2.72a3.157 3.157 0 0 0-1.802-4.085Z" stroke="#6553D5" stroke-width="1.261" stroke-linecap="round" stroke-linejoin="round"/><path d="M148.805 141.625a24.83 24.83 0 0 1-5.843-2.093c.11.926.51 1.794 1.143 2.48a4.342 4.342 0 0 0 2.072 1.261c.23.059.456.13.677.214" stroke="#6553D5" stroke-width=".841" stroke-linecap="round" stroke-linejoin="round"/><path d="M144.773 140.877c-.42.353-.281 1.681.509 2.047a1.357 1.357 0 0 0 1.181-.131c.463-.29.811-.912.622-1.299-.038-.075-.126-.201-.752-.42-.891-.256-1.312-.395-1.56-.197ZM163.597 147.447a10.216 10.216 0 0 0 4.397 2.068c-.19.181-1.261 1.164-2.594 1.017a4.382 4.382 0 0 1-1.879-.803 4.87 4.87 0 0 1-.45-.361" stroke="#6553D5" stroke-width=".841" stroke-linecap="round" stroke-linejoin="round"/><path d="M166.064 149.174c.072.484-.979 1.35-1.723 1.022a1.068 1.068 0 0 1-.593-.866c-.03-.236.022-.475.146-.678a1.05 1.05 0 0 1 .539-.436c.076 0 .185 0 .618.223.656.366.988.525 1.013.735Z" stroke="#6553D5" stroke-width=".841" stroke-linecap="round" stroke-linejoin="round"/><path d="M147.707 133.428c-.13.265 2.207 1.682 5.019 2.232.971.189 2.569.505 2.985-.071.315-.421-.072-1.345-.79-1.77-.988-.58-1.892.172-4.204.076-1.913-.076-2.926-.643-3.01-.467ZM172.08 144.433c-.148.256-2.371-.521-4.145-2.156-.614-.564-1.623-1.493-1.366-2.136.193-.487 1.093-.773 1.765-.525.925.336.765 1.433 1.955 3.005.962 1.287 1.887 1.648 1.791 1.812Z" fill="#6553D5" stroke="#6553D5" stroke-width=".42" stroke-linecap="round" stroke-linejoin="round"/><path d="M148.25 162.676a2.254 2.254 0 0 1-2.67.69c-1.181-.53-1.643-2.102-1.143-2.884.273-.42.782-.538 1.459-.689.794-.181 1.681-.379 2.265.13.677.559.74 1.866.089 2.753ZM86.786 70.594c-6.188-1.745-20.492-5.368-22.531-1.21-2.627 5.35 16.57 20.567 19.992 23.253M89.472 71.258l5.452 1.614M97.517 74.04l1.354.396" stroke="#6553D5" stroke-width="1.261" stroke-linecap="round" stroke-linejoin="round"/><path d="M81.056 72.166c-6.725-2.102-11.85-2.35-12.673-.614-1.051 2.207 5.107 7.188 5.683 7.65M83.196 72.851l1.03.324M68.06 83.398a815.685 815.685 0 0 0 3.492 3.649c.911.941 1.819 1.877 2.724 2.808M195.337 146.072c3.035.841 10.051 2.632 11.051.593 1.287-2.623-8.125-10.089-9.806-11.404M193.118 145.597l-1.375-.391-1.067-.294" stroke="#6553D5" stroke-width="1.261" stroke-linecap="round" stroke-linejoin="round"/><path d="M196.948 143.802c1.303.366 4.308 1.131 4.737.257.551-1.127-3.485-4.326-4.204-4.893M194.102 142.979l.752.231M200.151 133.861c.79.734 1.587 1.471 2.391 2.211l1.863 1.681M77.42 88.5c.447-.3.83-.685 1.127-1.134.483-.75.716-1.632.664-2.522a3.977 3.977 0 0 0 1.841 3.644c-.496.35-.914.8-1.227 1.32a4.536 4.536 0 0 0-.589 2.816 4.586 4.586 0 0 0-.744-3.072A4.245 4.245 0 0 0 77.42 88.5ZM61.182 71.746a5.254 5.254 0 0 0 1.45-1.463 5.435 5.435 0 0 0 .841-3.233 5.12 5.12 0 0 0 2.375 4.696 5.64 5.64 0 0 0-1.58 1.681 5.838 5.838 0 0 0-.757 3.628 5.906 5.906 0 0 0-.954-3.956 5.464 5.464 0 0 0-1.375-1.353ZM201.891 149.263c.45-.303.836-.691 1.135-1.144a4.24 4.24 0 0 0 .668-2.522 4.005 4.005 0 0 0 1.854 3.666 4.39 4.39 0 0 0-1.236 1.328 4.562 4.562 0 0 0-.593 2.833 4.618 4.618 0 0 0-.748-3.089 4.249 4.249 0 0 0-1.08-1.072ZM75.73 67.05a6.822 6.822 0 0 0 1.884-1.9 7.058 7.058 0 0 0 1.114-4.203 6.65 6.65 0 0 0 3.085 6.1 7.326 7.326 0 0 0-2.056 2.21 7.567 7.567 0 0 0-.983 4.725 7.676 7.676 0 0 0-1.261-5.141 7.1 7.1 0 0 0-1.782-1.79ZM18.496 233.35a64.967 64.967 0 0 0 21.017 45.617" stroke="#6553D5" stroke-width="1.261" stroke-linecap="round" stroke-linejoin="round"/><path d="m42.456 281.636 1.605 1.328 1.522 1.261" fill="#FCEE21"/><path d="m42.456 281.636 1.605 1.328 1.522 1.261" stroke="#6553D5" stroke-width="1.261" stroke-linecap="round" stroke-linejoin="round"/><path d="M175.816 190.037s28.114 2.522 37.311-27.701" stroke="#6553D5" stroke-width=".841" stroke-linecap="round" stroke-linejoin="round"/><path d="m66.773 189.15-2.043-1.892" stroke="#6553D5" stroke-width="1.261" stroke-linecap="round" stroke-linejoin="round"/><path d="m213.589 160.482.53-2.333" stroke="#6553D5" stroke-width=".841" stroke-linecap="round" stroke-linejoin="round"/><path d="M129.838 174.656c.06-.399.095-.802.105-1.206a8.987 8.987 0 0 0-.576-3.313c-.571.896-4.943 7.491-13.396 8.462-7.218.841-12.359-3.022-13.397-3.833l-1.417 5.212c1.652 1.114 8.794 5.675 17.117 3.59 6.743-1.694 11.257-7.02 11.564-8.912ZM148.447 180.44c2.102 1.085 7.6 4.288 10.467 10.887a21.109 21.109 0 0 1 1.681 6.789M160.743 199.802l.092 1.786" stroke="#6553D5" stroke-width="1.261" stroke-linecap="round" stroke-linejoin="round"/></svg>
