<svg width="24" height="24" viewBox="0 0 24 24" fill="none" xmlns="http://www.w3.org/2000/svg"><path d="M11.1751 6.2036c.3972-.5796 1.2526-.5796 1.6498 0l1.4428 2.1052a1 1 0 0 0 .5421.3939l2.448.7216c.674.1987.9383 1.0121.5098 1.569l-1.5563 2.0227a1 1 0 0 0-.2071.6373l.0702 2.5512c.0193.7024-.6727 1.2052-1.3347.9697l-2.4047-.8551a1.0005 1.0005 0 0 0-.67 0l-2.4047.8551c-.662.2355-1.354-.2673-1.3347-.9697l.0702-2.5512a1.0001 1.0001 0 0 0-.207-.6373l-1.5564-2.0227c-.4285-.5569-.1642-1.3703.5098-1.569l2.448-.7216a1 1 0 0 0 .5421-.3939l1.4428-2.1052Z" fill="currentColor"/></svg>
