<svg width="24" height="24" viewBox="0 0 24 24" fill="none" xmlns="http://www.w3.org/2000/svg"><path d="M6.75 9a.75.75 0 0 0-1.5 0h1.5Zm12 0a.75.75 0 0 0-1.5 0h1.5ZM5.25 9v11h1.5V9h-1.5ZM7 21.75h10v-1.5H7v1.5ZM18.75 20V9h-1.5v11h1.5ZM17 21.75c.9665 0 1.75-.7835 1.75-1.75h-1.5a.25.25 0 0 1-.25.25v1.5ZM5.25 20c0 .9665.7835 1.75 1.75 1.75v-1.5a.25.25 0 0 1-.25-.25h-1.5Z" fill="currentColor"/><path d="M19 5h-7M5 5h7m0 0V3.5" stroke="currentColor" stroke-width="1.5" stroke-linecap="round"/><path d="M10 18V9M14 18V9" stroke="currentColor" stroke-width="1.5" stroke-linecap="round" stroke-linejoin="round"/></svg>
