<svg width="24" height="24" viewBox="0 0 24 24" fill="none" xmlns="http://www.w3.org/2000/svg">
<path d="M6.75 9C6.75 8.58579 6.41421 8.25 6 8.25C5.58579 8.25 5.25 8.58579 5.25 9H6.75ZM18.75 9C18.75 8.58579 18.4142 8.25 18 8.25C17.5858 8.25 17.25 8.58579 17.25 9H18.75ZM5.25 9V20H6.75V9H5.25ZM7 21.75H17V20.25H7V21.75ZM18.75 20V9H17.25V20H18.75ZM17 21.75C17.9665 21.75 18.75 20.9665 18.75 20H17.25C17.25 20.1381 17.1381 20.25 17 20.25V21.75ZM5.25 20C5.25 20.9665 6.0335 21.75 7 21.75V20.25C6.86193 20.25 6.75 20.1381 6.75 20H5.25Z" fill="currentColor"/>
<path d="M19 5H12M5 5H12M12 5V3.5" stroke="currentColor" stroke-width="1.5" stroke-linecap="round"/>
<path d="M10 18V9" stroke="currentColor" stroke-width="1.5" stroke-linecap="round" stroke-linejoin="round"/>
<path d="M14 18V9" stroke="currentColor" stroke-width="1.5" stroke-linecap="round" stroke-linejoin="round"/>
</svg>
