<svg width="24" height="24" viewBox="0 0 24 24" fill="none" xmlns="http://www.w3.org/2000/svg"><g clip-path="url(#a)"><path d="M0 11.5c0-5.4211 0-8.1317 1.6841-9.8159C3.3683 0 6.079 0 11.5 0h1c5.4212 0 8.1318 0 9.8158 1.6841C24 3.3683 24 6.079 24 11.5v1c0 5.4212 0 8.1318-1.6842 9.8158C20.6318 24 17.9212 24 12.5 24h-1c-5.4211 0-8.1317 0-9.8159-1.6842C0 20.6318 0 17.9212 0 12.5v-1Z" fill="#2787F5"/><path fill-rule="evenodd" clip-rule="evenodd" d="M6.5004 7.5H4.75c-.5 0-.6001.2354-.6001.4949 0 .4635.5934 2.7625 2.7631 5.803C8.3595 15.8744 10.3974 17 12.2518 17c1.1127 0 1.2503-.25 1.2503-.6806V14.75c0-.5.1054-.5998.4577-.5998.2597 0 .7047.1298 1.7432 1.1309C16.8899 16.4677 17.0855 17 17.7531 17h1.7504c.5001 0 .7502-.25.6059-.7433-.1578-.4917-.7245-1.2052-1.4764-2.0509-.408-.482-1.0199-1.0011-1.2054-1.2607-.2596-.3337-.1854-.4821 0-.7787 0 0 2.1326-3.0034 2.3552-4.0231.1112-.3708 0-.6433-.5294-.6433H17.503c-.445 0-.6502.2354-.7615.4949 0 0-.8901 2.1692-2.1511 3.5782-.408.4079-.5935.5377-.816.5377-.1113 0-.2723-.1298-.2723-.5005v-3.467c0-.445-.1292-.6433-.5001-.6433h-2.7507c-.2781 0-.4454.2065-.4454.4023 0 .4217.6305.519.6955 1.7056v2.5771c0 .565-.1021.6675-.3246.6675-.5934 0-2.0368-2.1789-2.893-4.6721-.1677-.4847-.336-.6804-.7834-.6804Z" fill="#fff"/></g><defs><clipPath id="a"><path fill="#fff" d="M0 0h24v24H0z"/></clipPath></defs></svg>
